<?xml version="1.0" encoding="UTF-8"?>
<svg xmlns="http://www.w3.org/2000/svg" width="420" height="420">
<path fill="#000" fill-opacity=".1" stroke="#094" stroke-width="4" d="m30,30h360v360H30z"/>
<path fill="#000" fill-opacity=".2" stroke="#000" stroke-width="2" d="m209,32a178,178 0 1,0 2,0z"/>
<g style="font-size:85px;font-weight:bold;line-height:125%;fill-opacity:.5;font-family:Arial">
<text fill="#bc1e47" x="140" y="240">709</text>
<text fill="#009246" x="240" y="380">900</text>
</g><g stroke-width="4" stroke-linecap="round">
<path stroke="#bc1e47" d="m34,219h0m8-19h0m2,33h0m1-67h0m0,15h0m4-42h0m0,17h0m0,118h0m1-64h0m1-66h0m5-20h0m0,108h0m1,19h0m2-94h0m0,14h0m0,117h0m1-100h0m1,48h0m2-114h0m0,131h0m0-38h0m1-68h0m1,118h0m6-145h0m0,9h0m0,60h0m0-20h0m0,118h0m0-65h0m1,84h0m2-192h0m0,138h0m0-25h0m1-53h0m1,117h0m1-180h0m0,30h0m0,50h0m0-38h0m1,155h0m0-38h0m0-68h0m1-4h0m1-71h0m5-25h0m0,165h0m1-160h0m0,14h0m0,129h0m1-7h0m2-54h0m0-25h0m0,143h0m0-25h0m0-27h0m3-167h0m0,51h0m1-4h0m0,122h0m1-4h0m1-132h0m0,45h0m1-66h0m1,115h0m2-129h0m0,118h0m0,19h0m1,66h0m0,33h0m0-90h0m1-98h0m0,46h0m0,85h0m1-140h0m0,173h0m1-106h0m1,13h0m0,105h0m0-62h0m1,20h0m1-163h0m0,105h0m1-126h0m0,8h0m1,23h0m0,143h0m2-181h0m0,92h0m1,22h0m1-95h0m0,174h0m1-195h0m0,29h0m0,34h0m0,23h0m1-71h0m0,59h0m0,75h0m0,54h0m1-166h0m0,175h0m1,43h0m2-181h0m0,40h0m1-105h0m0,80h0m0,59h0m0-18h0m0-19h0m0,117h0m0-62h0m1,82h0m2-128h0m1,118h0m0-40h0m1-139h0m0,122h0m0,67h0m0-80h0m2-57h0m0,9h0m0,150h0m2-86h0m1-79h0m1-98h0m0,66h0m1-61h0m0-23h0m0,32h0m0,169h0m1-151h0m0,12h0m0,52h0m0,29h0m0,114h0m1-86h0m1-146h0m1,7h0m0,98h0m0,78h0m1-216h0m1,4h0m0,150h0m1,118h0m0-123h0m1-136h0m0-19h0m0,144h0m0-13h0m0,182h0m0-20h0m0-32h0m0-13h0m0-77h0m1-121h0m1-35h0m0,94h0m0,29h0m0,70h0m1-189h0m0,152h0m1,127h0m1-269h0m0,113h0m0,81h0m0-41h0m1-178h0m0,9h0m0,302h0m0-38h0m1-227h0m1,73h0m1-125h0m0,242h0m1-35h0m1-143h0m0,153h0m1-220h0m0,30h0m0,91h0m0,45h0m1-90h0m0,22h0m1,117h0m1-199h0m0,67h0m0-16h0m0,164h0m0-31h0m0-22h0m1-30h0m0,43h0m1-98h0m0,62h0m0-41h0m0,204h0m0-25h0m0-25h0m0-70h0m1-146h0m0,94h0m0,85h0m1-130h0m0,104h0m0-81h0m1-114h0m0,12h0m0,13h0m0,75h0m0,56h0m0,117h0m1-278h0m0,263h0m1-4h0m0-39h0m3-68h0m0,109h0m0-1h0m1,10h0m1-99h0m1-58h0m0,215h0m0-98h0m0-40h0m1-125h0m0,89h0m1-87h0m0,98h0m0,139h0m0-54h0m1-65h0m0,56h0m1-188h0m0,263h0m0-68h0m0-50h0m2-33h0m0,28h0m1-183h0m0,171h0m0,94h0m1-257h0m0-3h0m0,142h0m1-148h0m0,64h0m0,202h0m0-82h0m1-65h0m1-123h0m0,117h0m0-22h0m1-106h0m0,31h0m0,93h0m0,33h0m0-87h0m0,103h0m0,109h0m0-24h0m0-44h0m2,77h0m1-217h0m0,225h0m0-87h0m2-15h0m1,9h0m0-9h0m1,119h0m0-17h0m0-19h0m0-21h0m1-123h0m0,13h0m0,186h0m1-188h0m1-142h0m0,115h0m1,205h0m0-41h0m1-269h0m0,121h0m0,118h0m1-197h0m0,244h0m0-37h0m2-198h0m0,6h0m0,38h0m0,42h0m0,117h0m0-29h0m0-36h0m1-207h0m0,78h0m0,137h0m1-174h0m0,52h0m0,92h0m0-32h0m1-101h0m0,218h0m1-255h0m0,266h0m1-203h0m0,20h0m0,136h0m0-31h0m1-106h0m0,167h0m0-9h0m0-51h0m0,12h0m0-70h0m1-78h0m0-16h0m0,169h0m1-47h0m2-136h0m0,100h0m0,165h0m0-25h0m1-228h0m0,293h0m1-305h0m0,81h0m0-35h0m0,243h0m0-13h0m0-129h0m1-160h0m0,122h0m0,106h0m0-63h0m0,11h0m1,48h0m0-128h0m1-4h0m0,131h0m0,14h0m1-82h0m0,54h0m1,41h0m0-166h0m0-112h0m1,98h0m0,132h0m1-145h0m1,13h0m0-5h0m0,63h0m0,27h0m0,138h0m1-301h0m0,13h0m0,276h0m0-82h0m0,35h0m0-43h0m1-216h0m0,294h0m1-106h0m0-62h0m1-86h0m0,25h0m0,241h0m0-100h0m2,70h0m1-196h0m0,8h0m0,51h0m0,153h0m0-45h0m0-7h0m1-16h0m0,42h0m0-21h0m2-182h0m0,10h0m0,99h0m0-19h0m0,175h0m0-36h0m2-164h0m0,216h0m0-42h0m0-36h0m0-15h0m2-114h0m0,137h0m0-6h0m0-38h0m0-12h0m1-179h0m0,38h0m0,206h0m1-196h0m1-72h0m0,41h0m0,269h0m0-121h0m1,131h0m1-137h0m0,23h0m1-216h0m0,188h0m0,126h0m0-115h0m0-12h0m1-167h0m0,16h0m1,19h0m0,21h0m0,54h0m0,8h0m0-7h0m0,179h0m0-116h0m1-31h0m0,139h0m0,2h0m0-309h0m0-3h0m2,44h0m0,87h0m0,186h0m0-47h0m0-25h0m0-120h0m1,20h0m1-92h0m1,8h0m0,25h0m0,43h0m0,29h0m0,59h0m0-47h0m1-36h0m0,209h0m0-123h0m0-33h0m1,28h0m1-70h0m0,120h0m1-202h0m0,117h0m2-118h0m1,121h0m0-52h0m1-42h0m0,196h0m1-264h0m0,75h0m0,43h0m0,23h0m0,47h0m1-176h0m0,55h0m0-7h0m0,17h0m0,229h0m0-67h0m0-88h0m1,150h0m0-117h0m1-196h0m0,138h0m0,163h0m0-38h0m0-47h0m0-42h0m1-17h0m1-98h0m1,117h0m1-109h0m1,240h0m0-110h0m0-11h0m1,21h0m1-138h0m0-4h0m0,44h0m0,70h0m0,144h0m0-30h0m1-243h0m0,231h0m0-58h0m1-55h0m1-66h0m0,219h0m0-89h0m0-45h0m0,22h0m1-194h0m0,25h0m0,26h0m0,69h0m0,106h0m0-63h0m0,42h0m1-30h0m0-4h0m1-52h0m0,180h0m0-8h0m0-55h0m1-149h0m0,164h0m1-148h0m0,139h0m0-22h0m0-15h0m1,56h0m1-162h0m0,189h0m0-37h0m0-54h0m1,117h0m1-205h0m0,153h0m0-11h0m0-130h0m0-131h0m1,83h0m0,230h0m0-113h0m1-84h0m0-89h0m1-18h0m0,38h0m0,260h0m1-207h0m0,65h0m1-23h0m0,153h0m1-269h0m0,126h0m0,120h0m0,33h0m1-189h0m1,98h0m0-28h0m1-175h0m0,51h0m0,13h0m0,230h0m1-275h0m0,122h0m0,28h0m1-134h0m0,122h0m0,117h0m0-9h0m2,7h0m0-103h0m2,106h0m0-10h0m1-224h0m0,86h0m0,153h0m0-31h0m0-13h0m0-51h0m0-30h0m1,144h0m1-202h0m0,117h0m1-32h0m2-175h0m1,11h0m0,84h0m0,74h0m0-9h0m2-61h0m0,13h0m1,20h0m0,89h0m1-178h0m0,40h0m0,77h0m1,110h0m1-237h0m0,262h0m1-243h0m0,98h0m1,41h0m0-21h0m1,37h0m0-40h0m1-142h0m1,44h0m0,76h0m0,120h0m0-22h0m1-36h0m0-75h0m0,54h0m1-109h0m0,30h0m0-112h0m1,91h0m0,194h0m0-29h0m0,8h0m0-41h0m1-53h0m1,113h0m0,1h0m3-181h0m0,174h0m0-9h0m0-23h0m1,10h0m1-162h0m0,57h0m0-134h0m1,109h0m0-13h0m0,43h0m0-151h0m1,47h0m1,12h0m0,172h0m0-67h0m1,59h0m0-47h0m1-141h0m0,90h0m0,105h0m1-78h0m0-132h0m0,8h0m1,105h0m0,138h0m1-129h0m2,94h0m0,20h0m2-152h0m1-4h0m0,169h0m0-48h0m0-4h0m3-167h0m0,25h0m0-23h0m1,50h0m0,65h0m0,25h0m0-129h0m1,51h0m1,135h0m1-159h0m0,164h0m0-19h0m0-217h0m5,211h0m1,22h0m1-92h0m1-111h0m0,38h0m0,69h0m0,90h0m0-29h0m0-50h0m0,37h0m1-167h0m1,29h0m0,118h0m1-78h0m0,25h0m0,113h0m2-193h0m0,42h0m1-22h0m0,166h0m0-8h0m0-60h0m1,19h0m5-95h0m0,140h0m1-23h0m0-115h0m2,9h0m0,38h0m0,93h0m0-66h0m2-48h0m1-52h0m0,131h0m1-13h0m1-81h0m1,20h0m0,107h0m3-67h0m2,13h0m1-31h0m0,66h0m1-131h0m0,136h0m1-18h0m1-85h0m2,49h0m1-41h0m4,47h0m1-63h0m1,78h0m1-38h0m3-10h0"/>
<path stroke="#0081CD" d="m34,99v0m1,190v0m0,17v0m0,22v0m1-292v0m0,89v0m0,224v0m1-199v0m0-40v0m0,149v0m0,84v0m0-23v0m1-267v0m2,25v0m0,303v0m1-276v0m0,27v0m0-59v0m1,34v0m0,255v0m1,10v0m0-46v0m2-15v0m0-25v0m1,40v0m1,20v0m1-247v0m0,287v0m2-274v0m1-46v0m2,298v0m1-321v0m0,51v0m0,278v0m0-24v0m1,38v0m2-293v0m0,217v0m2-236v0m0,26v0m0,275v0m0-25v0m1-19v0m2-262v0m1,275v0m1-301v0m0,295v0m2-282v0m2-9v0m0,41v0m0,295v0m1-46v0m0-10v0m1,28v0m1-270v0m0,287v0m1-29v0m3-307v0m1,339v0m1-312v0m0,10v0m0,286v0m1-21v0m2,31v0m3-3v0m2-302v0m2-16v0m0,18v0m1,296v0m1,21v0m2-345v0m1,320v0m8,0v0m3-302v0m3,311v0m0,6v0m1-336v0m1,5v0m3,341v0m3-336v0m4,3v0m3-11v0m5,337v0m1,7v0m2-345v0m3,343v0m4-3v0m8-339v0m3,344v0m12-352v0m0,354v0m91-352v0m8,351v0m3-350v0m2,350v0m10-347v0m1,345v0m9-341v0m2,336v0m2-339v0m2,342v0m4-343v0m1,345v0m0-339v0m1,332v0m14-338v0m0,17v0m2,328v0m4-341v0m1,326v0m0,5v0m6-15v0m0-308v0m7,308v0m1-320v0m1,16v0m1,5v0m1,303v0m3-308v0m2,313v0m4-290v0m0-15v0m0,20v0m1,256v0m0-293v0m1,314v0m1,16v0m3-297v0m0-17v0m1,282v0m0-295v0m1,320v0m0-303v0m1,290v0m0-282v0m0,20v0m1,283v0m0-49v0m0-289v0m1,345v0m3-300v0m1,255v0m0-261v0m1,268v0m0-286v0m0,4v0m1,281v0m0,13v0m1,5v0m0-272v0m1-44v0m2,329v0m2-340v0m0,38v0m1,311v0m1,2v0m0-42v0m0,4v0m0-250v0m2,224v0m1-9v0m0-202v0m2-77v0m1,352v0m1-309v0m1-34v0m0,66v0m1,212v0m0-220v0m0-42v0m1-10v0m1,323v0m0-10v0m1-21v0m0,21v0m0-322v0m2,341v0m2-89v0m1-22v0m0,73v0m0-23v0m0-188v0m0-39v0m0-22v0m0,43v0m1,235v0m1-60v0m0,17v0m0,22v0m0-185v0m2,22v0"/>
</g></svg>